solid OpenSCAD_Model
  facet normal 0 0 1
    outer loop
      vertex -0.79 0.79 -0.8
      vertex -0.79 -0.79 -0.8
      vertex 0.79 -0.79 -0.8
    endloop
  endfacet
  facet normal 0 0 -1
    outer loop
      vertex -0.79 -0.79 -1
      vertex -0.79 0.79 -1
      vertex 0.79 0.79 -1
    endloop
  endfacet
  facet normal 0 0 -1
    outer loop
      vertex 0.79 0.79 -1
      vertex 0.79 -0.79 -1
      vertex -0.79 -0.79 -1
    endloop
  endfacet
  facet normal 0 0 1
    outer loop
      vertex 0.79 -0.79 -0.8
      vertex 0.79 0.79 -0.8
      vertex -0.79 0.79 -0.8
    endloop
  endfacet
  facet normal 0 -1 0
    outer loop
      vertex 0.79 -1 -1
      vertex 1 -1 -1
      vertex 1 -1 1
    endloop
  endfacet
  facet normal 0 0 -1
    outer loop
      vertex 0.79 -1 -1
      vertex 0.79 -0.79 -1
      vertex 1 1 -1
    endloop
  endfacet
  facet normal 0 0 -1
    outer loop
      vertex 0.79 -1 -1
      vertex 1 1 -1
      vertex 1 -1 -1
    endloop
  endfacet
  facet normal 1 0 0
    outer loop
      vertex 1 -1 -1
      vertex 1 1 -1
      vertex 1 -1 1
    endloop
  endfacet
  facet normal 0 -1 0
    outer loop
      vertex 0.79 -1 -1
      vertex 1 -1 1
      vertex 0.79 -1 1
    endloop
  endfacet
  facet normal 0 0 1
    outer loop
      vertex 0.79 -1 1
      vertex 1 -1 1
      vertex 0.79 -0.79 1
    endloop
  endfacet
  facet normal -1 0 0
    outer loop
      vertex 0.79 -0.79 1
      vertex 0.79 0.79 1
      vertex 0.79 -0.79 -0.8
    endloop
  endfacet
  facet normal 0 0 1
    outer loop
      vertex 0.79 -0.79 1
      vertex 1 -1 1
      vertex 0.79 0.79 1
    endloop
  endfacet
  facet normal 0 0 -1
    outer loop
      vertex 0.79 -0.79 -1
      vertex 0.79 0.79 -1
      vertex 1 1 -1
    endloop
  endfacet
  facet normal -1 0 0
    outer loop
      vertex 0.79 0.79 1
      vertex 0.79 0.79 -0.8
      vertex 0.79 -0.79 -0.8
    endloop
  endfacet
  facet normal 0 0 -1
    outer loop
      vertex 0.79 0.79 -1
      vertex 0.79 1 -1
      vertex 1 1 -1
    endloop
  endfacet
  facet normal 0 1 0
    outer loop
      vertex 0.79 1 -1
      vertex 0.79 1 1
      vertex 1 1 -1
    endloop
  endfacet
  facet normal 1 0 0
    outer loop
      vertex 1 -1 1
      vertex 1 1 -1
      vertex 1 1 1
    endloop
  endfacet
  facet normal 0 0 1
    outer loop
      vertex 1 -1 1
      vertex 0.79 1 1
      vertex 0.79 0.79 1
    endloop
  endfacet
  facet normal 0 0 1
    outer loop
      vertex 1 -1 1
      vertex 1 1 1
      vertex 0.79 1 1
    endloop
  endfacet
  facet normal 0 1 0
    outer loop
      vertex 1 1 -1
      vertex 0.79 1 1
      vertex 1 1 1
    endloop
  endfacet
  facet normal 0 0 -1
    outer loop
      vertex -1 -1 -1
      vertex -0.79 -0.79 -1
      vertex -0.79 -1 -1
    endloop
  endfacet
  facet normal 0 -1 0
    outer loop
      vertex -1 -1 -1
      vertex -0.79 -1 -1
      vertex -0.79 -1 1
    endloop
  endfacet
  facet normal 0 0 -1
    outer loop
      vertex -1 -1 -1
      vertex -0.79 0.79 -1
      vertex -0.79 -0.79 -1
    endloop
  endfacet
  facet normal 1 0 0
    outer loop
      vertex -0.79 -0.79 1
      vertex -0.79 -0.79 -0.8
      vertex -0.79 0.79 -0.8
    endloop
  endfacet
  facet normal 0 -1 0
    outer loop
      vertex -1 -1 -1
      vertex -0.79 -1 1
      vertex -1 -1 1
    endloop
  endfacet
  facet normal -1 0 0
    outer loop
      vertex -1 -1 -1
      vertex -1 -1 1
      vertex -1 1 1
    endloop
  endfacet
  facet normal 0 0 1
    outer loop
      vertex -1 -1 1
      vertex -0.79 -1 1
      vertex -1 1 1
    endloop
  endfacet
  facet normal 0 0 1
    outer loop
      vertex -0.79 -1 1
      vertex -0.79 -0.79 1
      vertex -1 1 1
    endloop
  endfacet
  facet normal 0 0 -1
    outer loop
      vertex -1 -1 -1
      vertex -1 1 -1
      vertex -0.79 1 -1
    endloop
  endfacet
  facet normal 0 0 -1
    outer loop
      vertex -1 -1 -1
      vertex -0.79 1 -1
      vertex -0.79 0.79 -1
    endloop
  endfacet
  facet normal -1 0 0
    outer loop
      vertex -1 -1 -1
      vertex -1 1 1
      vertex -1 1 -1
    endloop
  endfacet
  facet normal 0 1 0
    outer loop
      vertex -1 1 -1
      vertex -1 1 1
      vertex -0.79 1 -1
    endloop
  endfacet
  facet normal 1 0 0
    outer loop
      vertex -0.79 -0.79 1
      vertex -0.79 0.79 -0.8
      vertex -0.79 0.79 1
    endloop
  endfacet
  facet normal 0 0 1
    outer loop
      vertex -0.79 -0.79 1
      vertex -0.79 0.79 1
      vertex -1 1 1
    endloop
  endfacet
  facet normal 0 1 0
    outer loop
      vertex -0.79 1 -1
      vertex -1 1 1
      vertex -0.79 1 1
    endloop
  endfacet
  facet normal 0 0 1
    outer loop
      vertex -1 1 1
      vertex -0.79 0.79 1
      vertex -0.79 1 1
    endloop
  endfacet
  facet normal 0 0 -1
    outer loop
      vertex -0.79 0.79 -1
      vertex -0.79 1 -1
      vertex 0.79 1 -1
    endloop
  endfacet
  facet normal 0 -1 0
    outer loop
      vertex -0.79 0.79 1
      vertex -0.79 0.79 -0.8
      vertex 0.79 0.79 -0.8
    endloop
  endfacet
  facet normal 0 1 0
    outer loop
      vertex -0.79 1 -1
      vertex -0.79 1 1
      vertex 0.79 1 1
    endloop
  endfacet
  facet normal 0 0 1
    outer loop
      vertex -0.79 0.79 1
      vertex 0.79 0.79 1
      vertex -0.79 1 1
    endloop
  endfacet
  facet normal 0 0 -1
    outer loop
      vertex -0.79 0.79 -1
      vertex 0.79 1 -1
      vertex 0.79 0.79 -1
    endloop
  endfacet
  facet normal 0 1 0
    outer loop
      vertex -0.79 1 -1
      vertex 0.79 1 1
      vertex 0.79 1 -1
    endloop
  endfacet
  facet normal 0 -1 0
    outer loop
      vertex -0.79 0.79 1
      vertex 0.79 0.79 -0.8
      vertex 0.79 0.79 1
    endloop
  endfacet
  facet normal 0 0 1
    outer loop
      vertex -0.79 1 1
      vertex 0.79 0.79 1
      vertex 0.79 1 1
    endloop
  endfacet
  facet normal 0 0 -1
    outer loop
      vertex -0.79 -1 -1
      vertex -0.79 -0.79 -1
      vertex 0.79 -0.79 -1
    endloop
  endfacet
  facet normal 0 -1 0
    outer loop
      vertex -0.79 -1 -1
      vertex 0.79 -1 -1
      vertex -0.79 -1 1
    endloop
  endfacet
  facet normal 0 1 0
    outer loop
      vertex -0.79 -0.79 1
      vertex 0.79 -0.79 1
      vertex -0.79 -0.79 -0.8
    endloop
  endfacet
  facet normal 0 0 1
    outer loop
      vertex -0.79 -1 1
      vertex 0.79 -1 1
      vertex -0.79 -0.79 1
    endloop
  endfacet
  facet normal 0 0 -1
    outer loop
      vertex -0.79 -1 -1
      vertex 0.79 -0.79 -1
      vertex 0.79 -1 -1
    endloop
  endfacet
  facet normal 0 1 0
    outer loop
      vertex 0.79 -0.79 1
      vertex 0.79 -0.79 -0.8
      vertex -0.79 -0.79 -0.8
    endloop
  endfacet
  facet normal 0 -1 0
    outer loop
      vertex -0.79 -1 1
      vertex 0.79 -1 -1
      vertex 0.79 -1 1
    endloop
  endfacet
  facet normal 0 0 1
    outer loop
      vertex -0.79 -0.79 1
      vertex 0.79 -1 1
      vertex 0.79 -0.79 1
    endloop
  endfacet
endsolid OpenSCAD_Model
