solid STL generated by MeshLab
  facet normal  1.0  0.0  0.0
    outer loop
      vertex  -0.8  0.8  2.0
      vertex  -0.8 -0.8  2.0
      vertex  -0.8  0.8  0.2
    endloop
  endfacet
  facet normal  1.0  0.0  0.0
    outer loop
      vertex  -0.8  0.8  0.2
      vertex  -0.8 -0.8  2.0
      vertex  -0.8 -0.8  0.2
    endloop
  endfacet
  facet normal -0.0  1.0  0.0
    outer loop
      vertex  -0.8 -0.8  2.0
      vertex   0.8 -0.8  2.0
      vertex  -0.8 -0.8  0.2
    endloop
  endfacet
  facet normal  0.0  1.0  0.0
    outer loop
      vertex  -0.8 -0.8  0.2
      vertex   0.8 -0.8  2.0
      vertex   0.8 -0.8  0.2
    endloop
  endfacet
  facet normal -1.0  0.0  0.0
    outer loop
      vertex   0.8 -0.8  2.0
      vertex   0.8  0.8  2.0
      vertex   0.8 -0.8  0.2
    endloop
  endfacet
  facet normal -1.0  0.0  0.0
    outer loop
      vertex   0.8 -0.8  0.2
      vertex   0.8  0.8  2.0
      vertex   0.8  0.8  0.2
    endloop
  endfacet
  facet normal -0.0 -1.0 -0.0
    outer loop
      vertex   0.8  0.8  2.0
      vertex  -0.8  0.8  2.0
      vertex   0.8  0.8  0.2
    endloop
  endfacet
  facet normal  0.0 -1.0  0.0
    outer loop
      vertex   0.8  0.8  0.2
      vertex  -0.8  0.8  2.0
      vertex  -0.8  0.8  0.2
    endloop
  endfacet
  facet normal  0.0  0.0  1.0
    outer loop
      vertex   0.8  0.8  0.2
      vertex  -0.8  0.8  0.2
      vertex   0.8 -0.8  0.2
    endloop
  endfacet
  facet normal  0.0  0.0  1.0
    outer loop
      vertex   0.8 -0.8  0.2
      vertex  -0.8  0.8  0.2
      vertex  -0.8 -0.8  0.2
    endloop
  endfacet
  facet normal  1.0  0.0  0.0
    outer loop
      vertex   1.0 -1.0  0.0
      vertex   1.0  1.0  0.0
      vertex   1.0 -1.0  2.0
    endloop
  endfacet
  facet normal  1.0 -0.0  0.0
    outer loop
      vertex   1.0 -1.0  2.0
      vertex   1.0  1.0  0.0
      vertex   1.0  1.0  2.0
    endloop
  endfacet
  facet normal  0.0 -1.0  0.0
    outer loop
      vertex  -1.0 -1.0  0.0
      vertex   1.0 -1.0  0.0
      vertex  -1.0 -1.0  2.0
    endloop
  endfacet
  facet normal  0.0 -1.0  0.0
    outer loop
      vertex  -1.0 -1.0  2.0
      vertex   1.0 -1.0  0.0
      vertex   1.0 -1.0  2.0
    endloop
  endfacet
  facet normal -1.0  0.0  0.0
    outer loop
      vertex  -1.0  1.0  0.0
      vertex  -1.0 -1.0  0.0
      vertex  -1.0  1.0  2.0
    endloop
  endfacet
  facet normal -1.0 -0.0  0.0
    outer loop
      vertex  -1.0  1.0  2.0
      vertex  -1.0 -1.0  0.0
      vertex  -1.0 -1.0  2.0
    endloop
  endfacet
  facet normal  0.0  1.0 -0.0
    outer loop
      vertex   1.0  1.0  0.0
      vertex  -1.0  1.0  0.0
      vertex   1.0  1.0  2.0
    endloop
  endfacet
  facet normal  0.0  1.0  0.0
    outer loop
      vertex   1.0  1.0  2.0
      vertex  -1.0  1.0  0.0
      vertex  -1.0  1.0  2.0
    endloop
  endfacet
  facet normal  0.0  0.0  1.0
    outer loop
      vertex  -0.8  0.8  2.0
      vertex  -1.0 -1.0  2.0
      vertex  -0.8 -0.8  2.0
    endloop
  endfacet
  facet normal  0.0  0.0  1.0
    outer loop
      vertex  -0.8 -0.8  2.0
      vertex  -1.0 -1.0  2.0
      vertex   1.0 -1.0  2.0
    endloop
  endfacet
  facet normal -0.0  0.0  1.0
    outer loop
      vertex  -0.8 -0.8  2.0
      vertex   1.0 -1.0  2.0
      vertex   0.8 -0.8  2.0
    endloop
  endfacet
  facet normal 0.0  0.0  1.0
    outer loop
      vertex   0.8 -0.8  2.0
      vertex   1.0 -1.0  2.0
      vertex   0.8  0.8  2.0
    endloop
  endfacet
  facet normal -0.0  0.0  1.0
    outer loop
      vertex   0.8  0.8  2.0
      vertex   1.0 -1.0  2.0
      vertex   1.0  1.0  2.0
    endloop
  endfacet
  facet normal  0.0 0.0  1.0
    outer loop
      vertex   0.8  0.8  2.0
      vertex   1.0  1.0  2.0
      vertex  -1.0  1.0  2.0
    endloop
  endfacet
  facet normal  0.0  0.0  1.0
    outer loop
      vertex  -1.0 -1.0  2.0
      vertex  -0.8  0.8  2.0
      vertex  -1.0  1.0  2.0
    endloop
  endfacet
  facet normal  0.0  0.0  1.0
    outer loop
      vertex  -1.0  1.0  2.0
      vertex  -0.8  0.8  2.0
      vertex   0.8  0.8  2.0
    endloop
  endfacet
  facet normal  0.0  0.0 -1.0
    outer loop
      vertex  -1.0  1.0  0.0
      vertex   1.0  1.0  0.0
      vertex  -1.0 -1.0  0.0
    endloop
  endfacet
  facet normal  0.0  0.0 -1.0
    outer loop
      vertex  -1.0 -1.0  0.0
      vertex   1.0  1.0  0.0
      vertex   1.0 -1.0  0.0
    endloop
  endfacet
endsolid vcg
