solid STL generated by MeshLab
  facet normal -6.477277e-01 -1.428724e-01  7.483557e-01
    outer loop
      vertex  -9.391108e-02 -6.773303e-02  1.424107e-02
      vertex  -9.637700e-02 -6.393047e-02  1.283270e-02
      vertex  -9.697955e-02 -7.116793e-02  1.092943e-02
    endloop
  endfacet
  facet normal -7.473016e-01 -1.101107e-01  6.552984e-01
    outer loop
      vertex  -9.637700e-02 -6.393047e-02  1.283270e-02
      vertex  -9.857896e-02 -6.488358e-02  1.016144e-02
      vertex  -9.697955e-02 -7.116793e-02  1.092943e-02
    endloop
  endfacet
  facet normal -8.761389e-01 -1.677541e-01  4.519283e-01
    outer loop
      vertex  -9.857896e-02 -6.488358e-02  1.016144e-02
      vertex  -9.992704e-02 -6.662948e-02  6.899890e-03
      vertex  -9.697955e-02 -7.116793e-02  1.092943e-02
    endloop
  endfacet
  facet normal -7.246565e-02 -2.737983e-01  9.590533e-01
    outer loop
      vertex  -9.080625e-02 -6.590166e-02  1.499851e-02
      vertex  -9.391108e-02 -6.773303e-02  1.424107e-02
      vertex  -9.011790e-02 -6.936049e-02  1.406307e-02
    endloop
  endfacet
  facet normal -2.177919e-01 -5.595754e-01  7.996512e-01
    outer loop
      vertex  -9.697955e-02 -7.116793e-02  1.092943e-02
      vertex  -9.160174e-02 -7.292061e-02  1.116765e-02
      vertex  -9.011790e-02 -6.936049e-02  1.406307e-02
    endloop
  endfacet
  facet normal -2.096397e-01 -5.751088e-01  7.907599e-01
    outer loop
      vertex  -9.697955e-02 -7.116793e-02  1.092943e-02
      vertex  -9.011790e-02 -6.936049e-02  1.406307e-02
      vertex  -9.391108e-02 -6.773303e-02  1.424107e-02
    endloop
  endfacet
  facet normal -3.023480e-01 -8.769295e-01  3.736046e-01
    outer loop
      vertex  -9.697955e-02 -7.116793e-02  1.092943e-02
      vertex  -9.590816e-02 -7.320987e-02  7.003626e-03
      vertex  -9.160174e-02 -7.292061e-02  1.116765e-02
    endloop
  endfacet
  facet normal -2.997695e-01 -8.788870e-01  3.710739e-01
    outer loop
      vertex  -9.160174e-02 -7.292061e-02  1.116765e-02
      vertex  -9.590816e-02 -7.320987e-02  7.003626e-03
      vertex  -9.101795e-02 -7.493738e-02  6.862539e-03
    endloop
  endfacet
  facet normal -8.775840e-01 -4.644720e-01  1.187940e-01
    outer loop
      vertex  -9.992704e-02 -6.662948e-02  6.899890e-03
      vertex  -9.998374e-02 -6.828708e-02  0.000000e+00
      vertex  -9.697955e-02 -7.116793e-02  1.092943e-02
    endloop
  endfacet
  facet normal -8.173827e-01 -5.713117e-01  7.408496e-02
    outer loop
      vertex  -9.697955e-02 -7.116793e-02  1.092943e-02
      vertex  -9.998374e-02 -6.828708e-02  0.000000e+00
      vertex  -9.590816e-02 -7.320987e-02  7.003626e-03
    endloop
  endfacet
  facet normal -6.756523e-01 -7.276680e-01 -1.182928e-01
    outer loop
      vertex  -9.590816e-02 -7.320987e-02  7.003626e-03
      vertex  -9.998374e-02 -6.828708e-02  0.000000e+00
      vertex  -9.276932e-02 -7.498579e-02  0.000000e+00
    endloop
  endfacet
  facet normal -3.293872e-01 -9.398292e-01  9.069237e-02
    outer loop
      vertex  -9.590816e-02 -7.320987e-02  7.003626e-03
      vertex  -9.276932e-02 -7.498579e-02  0.000000e+00
      vertex  -9.101795e-02 -7.493738e-02  6.862539e-03
    endloop
  endfacet
  facet normal -1.714322e-01 -2.559200e-01  9.513758e-01
    outer loop
      vertex   9.001434e-02 -6.593344e-02  1.499925e-02
      vertex   9.019107e-02 -6.913754e-02  1.416920e-02
      vertex   9.151475e-02 -6.733831e-02  1.489171e-02
    endloop
  endfacet
  facet normal  3.174758e-01 -5.451443e-01  7.759039e-01
    outer loop
      vertex   9.151475e-02 -6.733831e-02  1.489171e-02
      vertex   9.019107e-02 -6.913754e-02  1.416920e-02
      vertex   9.169619e-02 -7.332865e-02  1.060870e-02
    endloop
  endfacet
  facet normal  2.407171e-01 -5.767451e-01  7.806538e-01
    outer loop
      vertex   9.169619e-02 -7.332865e-02  1.060870e-02
      vertex   9.019107e-02 -6.913754e-02  1.416920e-02
      vertex   8.966492e-02 -7.170855e-02  1.243198e-02
    endloop
  endfacet
  facet normal  1.240019e-01 -9.238425e-01  3.621303e-01
    outer loop
      vertex   9.169619e-02 -7.332865e-02  1.060870e-02
      vertex   9.058980e-02 -7.494177e-02  6.872280e-03
      vertex   9.569987e-02 -7.295839e-02  1.018234e-02
    endloop
  endfacet
  facet normal  2.919065e-01 -7.181843e-04  9.564466e-01
    outer loop
      vertex   9.216391e-02  6.531250e-02  1.479319e-02
      vertex   9.151475e-02 -6.733831e-02  1.489171e-02
      vertex   9.428905e-02 -6.498278e-02  1.404677e-02
    endloop
  endfacet
  facet normal  5.036197e-01 -3.029339e-01  8.090724e-01
    outer loop
      vertex   9.428905e-02 -6.498278e-02  1.404677e-02
      vertex   9.151475e-02 -6.733831e-02  1.489171e-02
      vertex   9.569987e-02 -7.295839e-02  1.018234e-02
    endloop
  endfacet
  facet normal  5.114307e-01 -2.997487e-01  8.053504e-01
    outer loop
      vertex   9.428905e-02 -6.498278e-02  1.404677e-02
      vertex   9.569987e-02 -7.295839e-02  1.018234e-02
      vertex   9.669657e-02 -6.503002e-02  1.250031e-02
    endloop
  endfacet
  facet normal  9.198675e-01 -6.977990e-02  3.859723e-01
    outer loop
      vertex   9.994280e-02 -6.561019e-02  6.789888e-03
      vertex   9.857682e-02 -6.494842e-02  1.016498e-02
      vertex   9.944206e-02 -6.837123e-02  7.484103e-03
    endloop
  endfacet
  facet normal  7.531443e-01 -2.769790e-01  5.967046e-01
    outer loop
      vertex   9.857682e-02 -6.494842e-02  1.016498e-02
      vertex   9.669657e-02 -6.503002e-02  1.250031e-02
      vertex   9.944206e-02 -6.837123e-02  7.484103e-03
    endloop
  endfacet
  facet normal  7.580889e-01 -2.689924e-01  5.940912e-01
    outer loop
      vertex   9.944206e-02 -6.837123e-02  7.484103e-03
      vertex   9.669657e-02 -6.503002e-02  1.250031e-02
      vertex   9.569987e-02 -7.295839e-02  1.018234e-02
    endloop
  endfacet
  facet normal  1.390064e-01 -5.731789e-01  8.075538e-01
    outer loop
      vertex   9.569987e-02 -7.295839e-02  1.018234e-02
      vertex   9.151475e-02 -6.733831e-02  1.489171e-02
      vertex   9.169619e-02 -7.332865e-02  1.060870e-02
    endloop
  endfacet
  facet normal  3.361579e-01 -9.407428e-01  4.473087e-02
    outer loop
      vertex   9.058980e-02 -7.494177e-02  6.872280e-03
      vertex   9.134415e-02 -7.499898e-02  0.000000e+00
      vertex   9.569987e-02 -7.295839e-02  1.018234e-02
    endloop
  endfacet
  facet normal  4.123181e-01 -9.110188e-01  6.194816e-03
    outer loop
      vertex   9.569987e-02 -7.295839e-02  1.018234e-02
      vertex   9.134415e-02 -7.499898e-02  0.000000e+00
      vertex   9.733883e-02 -7.228584e-02  1.320548e-06
    endloop
  endfacet
  facet normal  7.967431e-01 -5.977621e-01  8.877389e-02
    outer loop
      vertex   9.569987e-02 -7.295839e-02  1.018234e-02
      vertex   9.733883e-02 -7.228584e-02  1.320548e-06
      vertex   9.944206e-02 -6.837123e-02  7.484103e-03
    endloop
  endfacet
  facet normal  9.144406e-01 -4.020153e-01 -4.671267e-02
    outer loop
      vertex   9.944206e-02 -6.837123e-02  7.484103e-03
      vertex   9.733883e-02 -7.228584e-02  1.320548e-06
      vertex   9.999770e-02 -6.623772e-02  0.000000e+00
    endloop
  endfacet
  facet normal  9.847065e-01 -1.725727e-01  2.391183e-02
    outer loop
      vertex   9.944206e-02 -6.837123e-02  7.484103e-03
      vertex   9.999770e-02 -6.623772e-02  0.000000e+00
      vertex   9.994280e-02 -6.561019e-02  6.789888e-03
    endloop
  endfacet
  facet normal -5.804019e-01  4.031619e-01  7.075267e-01
    outer loop
      vertex  -9.321136e-02  6.843946e-02  1.446198e-02
      vertex  -9.513666e-02  7.322777e-02  1.015414e-02
      vertex  -9.854100e-02  6.808046e-02  1.029452e-02
    endloop
  endfacet
  facet normal -1.435697e-01  6.293686e-01  7.637296e-01
    outer loop
      vertex  -9.513666e-02  7.322777e-02  1.015414e-02
      vertex  -9.321136e-02  6.843946e-02  1.446198e-02
      vertex  -8.987182e-02  7.229459e-02  1.191287e-02
    endloop
  endfacet
  facet normal -2.587666e-02  8.489125e-01  5.278994e-01
    outer loop
      vertex  -8.987182e-02  7.229459e-02  1.191287e-02
      vertex  -9.297112e-02  7.465472e-02  7.965622e-03
      vertex  -9.513666e-02  7.322777e-02  1.015414e-02
    endloop
  endfacet
  facet normal -6.131005e-01  1.843569e-01  7.681929e-01
    outer loop
      vertex  -9.641964e-02  6.473897e-02  1.278950e-02
      vertex  -9.321136e-02  6.843946e-02  1.446198e-02
      vertex  -9.854100e-02  6.808046e-02  1.029452e-02
    endloop
  endfacet
  facet normal -9.446014e-01  3.046848e-01  1.220470e-01
    outer loop
      vertex  -9.870505e-02  7.160602e-02  2.234414e-04
      vertex  -9.997168e-02  6.519117e-02  6.434492e-03
      vertex  -9.854100e-02  6.808046e-02  1.029452e-02
    endloop
  endfacet
  facet normal -8.140312e-01  5.439389e-01  2.036753e-01
    outer loop
      vertex  -9.854100e-02  6.808046e-02  1.029452e-02
      vertex  -9.513666e-02  7.322777e-02  1.015414e-02
      vertex  -9.870505e-02  7.160602e-02  2.234414e-04
    endloop
  endfacet
  facet normal -6.644598e-01  7.239456e-01 -1.854613e-01
    outer loop
      vertex  -9.297112e-02  7.465472e-02  7.965622e-03
      vertex  -9.034752e-02  7.502251e-02  1.621875e-06
      vertex  -9.513666e-02  7.322777e-02  1.015414e-02
    endloop
  endfacet
  facet normal -3.786956e-01  9.253989e-01 -1.504813e-02
    outer loop
      vertex  -9.513666e-02  7.322777e-02  1.015414e-02
      vertex  -9.034752e-02  7.502251e-02  1.621875e-06
      vertex  -9.870505e-02  7.160602e-02  2.234414e-04
    endloop
  endfacet
  facet normal -9.717597e-01  2.322579e-01  4.170510e-02
    outer loop
      vertex  -9.870505e-02  7.160602e-02  2.234414e-04
      vertex  -9.999770e-02  6.623772e-02  0.000000e+00
      vertex  -9.997168e-02  6.519117e-02  6.434492e-03
    endloop
  endfacet
  facet normal -2.368390e-01 -2.953836e-04  9.715489e-01
    outer loop
      vertex  -9.391108e-02 -6.773303e-02  1.424107e-02
      vertex  -9.080625e-02 -6.590166e-02  1.499851e-02
      vertex  -9.096692e-02  6.553826e-02  1.499931e-02
    endloop
  endfacet
  facet normal -9.378869e-01  9.072518e-04  3.469400e-01
    outer loop
      vertex  -9.997168e-02  6.519117e-02  6.434492e-03
      vertex  -9.992704e-02 -6.662948e-02  6.899890e-03
      vertex  -9.854100e-02  6.808046e-02  1.029452e-02
    endloop
  endfacet
  facet normal -9.241473e-01 -1.185249e-04  3.820363e-01
    outer loop
      vertex  -9.854100e-02  6.808046e-02  1.029452e-02
      vertex  -9.992704e-02 -6.662948e-02  6.899890e-03
      vertex  -9.857896e-02 -6.488358e-02  1.016144e-02
    endloop
  endfacet
  facet normal -7.621302e-01 -4.303960e-04  6.474237e-01
    outer loop
      vertex  -9.854100e-02  6.808046e-02  1.029452e-02
      vertex  -9.857896e-02 -6.488358e-02  1.016144e-02
      vertex  -9.641964e-02  6.473897e-02  1.278950e-02
    endloop
  endfacet
  facet normal -7.716258e-01 -4.215712e-05  6.360767e-01
    outer loop
      vertex  -9.641964e-02  6.473897e-02  1.278950e-02
      vertex  -9.857896e-02 -6.488358e-02  1.016144e-02
      vertex  -9.637700e-02 -6.393047e-02  1.283270e-02
    endloop
  endfacet
  facet normal -4.623918e-01  1.444538e-04  8.866757e-01
    outer loop
      vertex  -9.641964e-02  6.473897e-02  1.278950e-02
      vertex  -9.637700e-02 -6.393047e-02  1.283270e-02
      vertex  -9.321136e-02  6.843946e-02  1.446198e-02
    endloop
  endfacet
  facet normal -4.946296e-01  1.131717e-03  8.691031e-01
    outer loop
      vertex  -9.321136e-02  6.843946e-02  1.446198e-02
      vertex  -9.637700e-02 -6.393047e-02  1.283270e-02
      vertex  -9.391108e-02 -6.773303e-02  1.424107e-02
    endloop
  endfacet
  facet normal -2.332848e-01 -3.787918e-04  9.724084e-01
    outer loop
      vertex  -9.321136e-02  6.843946e-02  1.446198e-02
      vertex  -9.391108e-02 -6.773303e-02  1.424107e-02
      vertex  -9.096692e-02  6.553826e-02  1.499931e-02
    endloop
  endfacet
  facet normal  9.055619e-01 -4.008397e-02  4.223162e-01
    outer loop
      vertex   9.993540e-02  6.517556e-02  6.961905e-03
      vertex   9.928566e-02  6.845820e-02  8.666703e-03
      vertex   9.831805e-02  6.699985e-02  1.060311e-02
    endloop
  endfacet
  facet normal  6.288168e-01  1.896018e-01  7.540826e-01
    outer loop
      vertex   9.372409e-02  6.758010e-02  1.428804e-02
      vertex   9.678132e-02  6.481342e-02  1.243431e-02
      vertex   9.831805e-02  6.699985e-02  1.060311e-02
    endloop
  endfacet
  facet normal  5.842552e-01  4.806451e-01  6.539314e-01
    outer loop
      vertex   9.831805e-02  6.699985e-02  1.060311e-02
      vertex   9.928566e-02  6.845820e-02  8.666703e-03
      vertex   9.282148e-02  7.284360e-02  1.121883e-02
    endloop
  endfacet
  facet normal  5.846971e-01  4.811407e-01  6.531715e-01
    outer loop
      vertex   9.831805e-02  6.699985e-02  1.060311e-02
      vertex   9.282148e-02  7.284360e-02  1.121883e-02
      vertex   9.372409e-02  6.758010e-02  1.428804e-02
    endloop
  endfacet
  facet normal  8.049840e-02  2.364618e-01  9.683005e-01
    outer loop
      vertex   9.001793e-02  6.593010e-02  1.499908e-02
      vertex   9.372409e-02  6.758010e-02  1.428804e-02
      vertex   9.037176e-02  6.891505e-02  1.424073e-02
    endloop
  endfacet
  facet normal  1.763885e-01  5.182295e-01  8.368543e-01
    outer loop
      vertex   9.372409e-02  6.758010e-02  1.428804e-02
      vertex   9.282148e-02  7.284360e-02  1.121883e-02
      vertex   8.975910e-02  7.126644e-02  1.284097e-02
    endloop
  endfacet
  facet normal  2.032673e-01  5.394033e-01  8.171453e-01
    outer loop
      vertex   9.372409e-02  6.758010e-02  1.428804e-02
      vertex   8.975910e-02  7.126644e-02  1.284097e-02
      vertex   9.037176e-02  6.891505e-02  1.424073e-02
    endloop
  endfacet
  facet normal  1.313229e-01  1.286197e-01  9.829605e-01
    outer loop
      vertex   9.372409e-02  6.758010e-02  1.428804e-02
      vertex   9.001793e-02  6.593010e-02  1.499908e-02
      vertex   9.216391e-02  6.531250e-02  1.479319e-02
    endloop
  endfacet
  facet normal  6.049598e-01  7.667505e-01  2.147492e-01
    outer loop
      vertex   9.282148e-02  7.284360e-02  1.121883e-02
      vertex   9.928566e-02  6.845820e-02  8.666703e-03
      vertex   9.807327e-02  7.178813e-02  1.927198e-04
    endloop
  endfacet
  facet normal  6.605952e-01  7.090250e-01  2.467743e-01
    outer loop
      vertex   9.215263e-02  7.472615e-02  7.600375e-03
      vertex   9.282148e-02  7.284360e-02  1.121883e-02
      vertex   9.807327e-02  7.178813e-02  1.927198e-04
    endloop
  endfacet
  facet normal  9.826521e-01  1.844458e-01  1.935790e-02
    outer loop
      vertex   9.993540e-02  6.517556e-02  6.961905e-03
      vertex   9.999979e-02  6.556319e-02 -0.000000e+00
      vertex   9.928566e-02  6.845820e-02  8.666703e-03
    endloop
  endfacet
  facet normal  9.549237e-01  2.961601e-01 -2.024377e-02
    outer loop
      vertex   9.928566e-02  6.845820e-02  8.666703e-03
      vertex   9.999979e-02  6.556319e-02 -0.000000e+00
      vertex   9.807327e-02  7.178813e-02  1.927198e-04
    endloop
  endfacet
  facet normal  4.641462e-01  8.855384e-01  1.975196e-02
    outer loop
      vertex   9.807327e-02  7.178813e-02  1.927198e-04
      vertex   9.191738e-02  7.501896e-02  7.354060e-07
      vertex   9.215263e-02  7.472615e-02  7.600375e-03
    endloop
  endfacet
  facet normal  5.303435e-04  2.461758e-01  9.692250e-01
    outer loop
      vertex  -9.321136e-02  6.843946e-02  1.446198e-02
      vertex   9.001793e-02  6.593010e-02  1.499908e-02
      vertex   9.037176e-02  6.891505e-02  1.424073e-02
    endloop
  endfacet
  facet normal -2.893892e-04  5.114639e-01  8.593047e-01
    outer loop
      vertex   9.037176e-02  6.891505e-02  1.424073e-02
      vertex   8.975910e-02  7.126644e-02  1.284097e-02
      vertex  -9.321136e-02  6.843946e-02  1.446198e-02
    endloop
  endfacet
  facet normal -1.146519e-03  5.522465e-01  8.336801e-01
    outer loop
      vertex  -9.321136e-02  6.843946e-02  1.446198e-02
      vertex   8.975910e-02  7.126644e-02  1.284097e-02
      vertex  -8.987182e-02  7.229459e-02  1.191287e-02
    endloop
  endfacet
  facet normal -3.924289e-04  1.818161e-01  9.833325e-01
    outer loop
      vertex  -9.321136e-02  6.843946e-02  1.446198e-02
      vertex  -9.096692e-02  6.553826e-02  1.499931e-02
      vertex   9.001793e-02  6.593010e-02  1.499908e-02
    endloop
  endfacet
  facet normal  5.681372e-04  8.871634e-01  4.614551e-01
    outer loop
      vertex   9.282148e-02  7.284360e-02  1.121883e-02
      vertex   9.215263e-02  7.472615e-02  7.600375e-03
      vertex  -9.297112e-02  7.465472e-02  7.965622e-03
    endloop
  endfacet
  facet normal  1.966135e-05  9.989350e-01  4.613892e-02
    outer loop
      vertex  -9.297112e-02  7.465472e-02  7.965622e-03
      vertex   9.191738e-02  7.501896e-02  7.354060e-07
      vertex  -9.034752e-02  7.502251e-02  1.621875e-06
    endloop
  endfacet
  facet normal -3.095750e-04  9.992582e-01  3.851115e-02
    outer loop
      vertex  -9.297112e-02  7.465472e-02  7.965622e-03
      vertex   9.215263e-02  7.472615e-02  7.600375e-03
      vertex   9.191738e-02  7.501896e-02  7.354060e-07
    endloop
  endfacet
  facet normal -6.276339e-04  8.580623e-01  5.135452e-01
    outer loop
      vertex   9.282148e-02  7.284360e-02  1.121883e-02
      vertex  -9.297112e-02  7.465472e-02  7.965622e-03
      vertex  -8.987182e-02  7.229459e-02  1.191287e-02
    endloop
  endfacet
  facet normal  4.968694e-04  7.165098e-01  6.975769e-01
    outer loop
      vertex   9.282148e-02  7.284360e-02  1.121883e-02
      vertex  -8.987182e-02  7.229459e-02  1.191287e-02
      vertex   8.975910e-02  7.126644e-02  1.284097e-02
    endloop
  endfacet
  facet normal  9.558094e-02  2.715210e-04  9.954216e-01
    outer loop
      vertex   9.151475e-02 -6.733831e-02  1.489171e-02
      vertex   9.216391e-02  6.531250e-02  1.479319e-02
      vertex   9.001793e-02  6.593010e-02  1.499908e-02
    endloop
  endfacet
  facet normal  7.149195e-02 -6.648990e-07  9.974412e-01
    outer loop
      vertex   9.151475e-02 -6.733831e-02  1.489171e-02
      vertex   9.001793e-02  6.593010e-02  1.499908e-02
      vertex   9.001434e-02 -6.593344e-02  1.499925e-02
    endloop
  endfacet
  facet normal  7.663789e-01 -6.300300e-04  6.423885e-01
    outer loop
      vertex   9.857682e-02 -6.494842e-02  1.016498e-02
      vertex   9.831805e-02  6.699985e-02  1.060311e-02
      vertex   9.678132e-02  6.481342e-02  1.243431e-02
    endloop
  endfacet
  facet normal  5.189129e-01  6.556451e-04  8.548269e-01
    outer loop
      vertex   9.428905e-02 -6.498278e-02  1.404677e-02
      vertex   9.678132e-02  6.481342e-02  1.243431e-02
      vertex   9.372409e-02  6.758010e-02  1.428804e-02
    endloop
  endfacet
  facet normal  3.085812e-01 -4.161469e-04  9.511979e-01
    outer loop
      vertex   9.428905e-02 -6.498278e-02  1.404677e-02
      vertex   9.372409e-02  6.758010e-02  1.428804e-02
      vertex   9.216391e-02  6.531250e-02  1.479319e-02
    endloop
  endfacet
  facet normal  9.269296e-01 -4.411484e-04  3.752349e-01
    outer loop
      vertex   9.994280e-02 -6.561019e-02  6.789888e-03
      vertex   9.993540e-02  6.517556e-02  6.961905e-03
      vertex   9.857682e-02 -6.494842e-02  1.016498e-02
    endloop
  endfacet
  facet normal  9.139835e-01  4.451956e-04  4.057512e-01
    outer loop
      vertex   9.857682e-02 -6.494842e-02  1.016498e-02
      vertex   9.993540e-02  6.517556e-02  6.961905e-03
      vertex   9.831805e-02  6.699985e-02  1.060311e-02
    endloop
  endfacet
  facet normal  7.789173e-01 -1.896331e-04  6.271266e-01
    outer loop
      vertex   9.857682e-02 -6.494842e-02  1.016498e-02
      vertex   9.678132e-02  6.481342e-02  1.243431e-02
      vertex   9.669657e-02 -6.503002e-02  1.250031e-02
    endloop
  endfacet
  facet normal  5.404531e-01  7.492039e-05  8.413742e-01
    outer loop
      vertex   9.669657e-02 -6.503002e-02  1.250031e-02
      vertex   9.678132e-02  6.481342e-02  1.243431e-02
      vertex   9.428905e-02 -6.498278e-02  1.404677e-02
    endloop
  endfacet
  facet normal -1.195980e-03 -6.306620e-01  7.760566e-01
    outer loop
      vertex  -9.160174e-02 -7.292061e-02  1.116765e-02
      vertex   8.966492e-02 -7.170855e-02  1.243198e-02
      vertex  -9.011790e-02 -6.936049e-02  1.406307e-02
    endloop
  endfacet
  facet normal  2.046097e-04 -5.598968e-01  8.285624e-01
    outer loop
      vertex   9.019107e-02 -6.913754e-02  1.416920e-02
      vertex  -9.011790e-02 -6.936049e-02  1.406307e-02
      vertex   8.966492e-02 -7.170855e-02  1.243198e-02
    endloop
  endfacet
  facet normal -2.596904e-04 -2.507957e-01  9.680400e-01
    outer loop
      vertex  -9.011790e-02 -6.936049e-02  1.406307e-02
      vertex   9.019107e-02 -6.913754e-02  1.416920e-02
      vertex   9.001434e-02 -6.593344e-02  1.499925e-02
    endloop
  endfacet
  facet normal -7.226149e-04 -9.055970e-01  4.241385e-01
    outer loop
      vertex   9.169619e-02 -7.332865e-02  1.060870e-02
      vertex  -9.160174e-02 -7.292061e-02  1.116765e-02
      vertex  -9.101795e-02 -7.493738e-02  6.862539e-03
    endloop
  endfacet
  facet normal -4.344483e-05 -9.180879e-01  3.963768e-01
    outer loop
      vertex  -9.101795e-02 -7.493738e-02  6.862539e-03
      vertex   9.058980e-02 -7.494177e-02  6.872280e-03
      vertex   9.169619e-02 -7.332865e-02  1.060870e-02
    endloop
  endfacet
  facet normal  3.625356e-04 -7.473278e-01  6.644554e-01
    outer loop
      vertex  -9.160174e-02 -7.292061e-02  1.116765e-02
      vertex   9.169619e-02 -7.332865e-02  1.060870e-02
      vertex   8.966492e-02 -7.170855e-02  1.243198e-02
    endloop
  endfacet
  facet normal -4.986464e-05 -2.610807e-01  9.653170e-01
    outer loop
      vertex  -9.080625e-02 -6.590166e-02  1.499851e-02
      vertex  -9.011790e-02 -6.936049e-02  1.406307e-02
      vertex   9.001434e-02 -6.593344e-02  1.499925e-02
    endloop
  endfacet
  facet normal -9.999656e-01 -3.093866e-04  8.291408e-03
    outer loop
      vertex  -9.992704e-02 -6.662948e-02  6.899890e-03
      vertex  -9.997168e-02  6.519117e-02  6.434492e-03
      vertex  -9.998374e-02 -6.828708e-02  0.000000e+00
    endloop
  endfacet
  facet normal -9.999918e-01 -1.037896e-04  4.026518e-03
    outer loop
      vertex  -9.998374e-02 -6.828708e-02  0.000000e+00
      vertex  -9.997168e-02  6.519117e-02  6.434492e-03
      vertex  -9.999770e-02  6.623772e-02  0.000000e+00
    endloop
  endfacet
  facet normal  0.000000e+00  0.000000e+00 -1.000000e+00
    outer loop
      vertex   9.134415e-02 -7.499898e-02  0.000000e+00
      vertex  -9.276932e-02 -7.498579e-02  0.000000e+00
      vertex   9.999770e-02 -6.623772e-02  0.000000e+00
    endloop
  endfacet
  facet normal -0.000000e+00 -0.000000e+00 -1.000000e+00
    outer loop
      vertex  -9.999770e-02  6.623772e-02  0.000000e+00
      vertex   9.999979e-02  6.556319e-02 -0.000000e+00
      vertex  -9.998374e-02 -6.828708e-02  0.000000e+00
    endloop
  endfacet
  facet normal  0.000000e+00 -0.000000e+00 -1.000000e+00
    outer loop
      vertex  -9.998374e-02 -6.828708e-02  0.000000e+00
      vertex   9.999979e-02  6.556319e-02 -0.000000e+00
      vertex   9.999770e-02 -6.623772e-02  0.000000e+00
    endloop
  endfacet
  facet normal  0.000000e+00  0.000000e+00 -1.000000e+00
    outer loop
      vertex  -9.998374e-02 -6.828708e-02  0.000000e+00
      vertex   9.999770e-02 -6.623772e-02  0.000000e+00
      vertex  -9.276932e-02 -7.498579e-02  0.000000e+00
    endloop
  endfacet
  facet normal -4.859933e-06  1.899617e-04 -1.000000e+00
    outer loop
      vertex  -9.999770e-02  6.623772e-02  0.000000e+00
      vertex  -9.034752e-02  7.502251e-02  1.621875e-06
      vertex   9.191738e-02  7.501896e-02  7.354060e-07
    endloop
  endfacet
  facet normal  2.630638e-07  7.799805e-05 -1.000000e+00
    outer loop
      vertex  -9.999770e-02  6.623772e-02  0.000000e+00
      vertex   9.191738e-02  7.501896e-02  7.354060e-07
      vertex   9.999979e-02  6.556319e-02 -0.000000e+00
    endloop
  endfacet
  facet normal  5.647795e-02  4.835260e-02 -9.972324e-01
    outer loop
      vertex   9.999979e-02  6.556319e-02 -0.000000e+00
      vertex   9.191738e-02  7.501896e-02  7.354060e-07
      vertex   9.807327e-02  7.178813e-02  1.927198e-04
    endloop
  endfacet
  facet normal -4.818736e-02  5.311842e-02 -9.974248e-01
    outer loop
      vertex  -9.034752e-02  7.502251e-02  1.621875e-06
      vertex  -9.999770e-02  6.623772e-02  0.000000e+00
      vertex  -9.870505e-02  7.160602e-02  2.234414e-04
    endloop
  endfacet
  facet normal  3.983678e-04 -3.934702e-04 -9.999998e-01
    outer loop
      vertex   9.134415e-02 -7.499898e-02  0.000000e+00
      vertex   9.999770e-02 -6.623772e-02  0.000000e+00
      vertex   9.733883e-02 -7.228584e-02  1.320548e-06
    endloop
  endfacet
  facet normal -4.116343e-06 -6.063166e-06  1.000000e+00
    outer loop
      vertex  -9.080625e-02 -6.590166e-02  1.499851e-02
      vertex   9.001434e-02 -6.593344e-02  1.499925e-02
      vertex  -9.096692e-02  6.553826e-02  1.499931e-02
    endloop
  endfacet
  facet normal  1.221931e-06  1.285392e-06  1.000000e+00
    outer loop
      vertex  -9.096692e-02  6.553826e-02  1.499931e-02
      vertex   9.001434e-02 -6.593344e-02  1.499925e-02
      vertex   9.001793e-02  6.593010e-02  1.499908e-02
    endloop
  endfacet
  facet normal  9.999673e-01 -1.588414e-05  8.087247e-03
    outer loop
      vertex   9.999770e-02 -6.623772e-02  0.000000e+00
      vertex   9.999979e-02  6.556319e-02 -0.000000e+00
      vertex   9.994280e-02 -6.561019e-02  6.789888e-03
    endloop
  endfacet
  facet normal  9.999573e-01  4.434264e-05  9.250680e-03
    outer loop
      vertex   9.994280e-02 -6.561019e-02  6.789888e-03
      vertex   9.999979e-02  6.556319e-02 -0.000000e+00
      vertex   9.993540e-02  6.517556e-02  6.961905e-03
    endloop
  endfacet
  facet normal -7.162538e-05 -9.999750e-01  7.072908e-03
    outer loop
      vertex  -9.276932e-02 -7.498579e-02  0.000000e+00
      vertex   9.134415e-02 -7.499898e-02  0.000000e+00
      vertex  -9.101795e-02 -7.493738e-02  6.862539e-03
    endloop
  endfacet
  facet normal -2.460966e-05 -9.999654e-01  8.322197e-03
    outer loop
      vertex  -9.101795e-02 -7.493738e-02  6.862539e-03
      vertex   9.134415e-02 -7.499898e-02  0.000000e+00
      vertex   9.058980e-02 -7.494177e-02  6.872280e-03
    endloop
  endfacet
endsolid vcg
