solid STL generated by MeshLab
  facet normal  7.160528e-01  6.406368e-01 -2.772236e-01
    outer loop
      vertex   9.332996e-02  7.496294e-02  7.326777e-03
      vertex   9.998946e-02  6.753012e-02  7.351350e-03
      vertex   9.519289e-02  7.028693e-02  1.332802e-03
    endloop
  endfacet
  facet normal -5.994484e-03 -6.865349e-01 -7.270722e-01
    outer loop
      vertex   9.107289e-02 -6.883337e-02  4.289697e-05
      vertex   9.601504e-02 -7.078349e-02  1.843545e-03
      vertex  -9.193984e-02 -7.497372e-02  7.349788e-03
    endloop
  endfacet
  facet normal  5.600268e-01 -8.151085e-01 -1.482158e-01
    outer loop
      vertex   9.994026e-02 -6.912831e-02  7.572219e-03
      vertex   9.187168e-02 -7.499687e-02  9.359418e-03
      vertex   9.601504e-02 -7.078349e-02  1.843545e-03
    endloop
  endfacet
  facet normal  5.212294e-03 -8.734946e-01 -4.868061e-01
    outer loop
      vertex   9.601504e-02 -7.078349e-02  1.843545e-03
      vertex   9.187168e-02 -7.499687e-02  9.359418e-03
      vertex  -9.193984e-02 -7.497372e-02  7.349788e-03
    endloop
  endfacet
  facet normal -1.809453e-01  8.058643e-01 -5.637743e-01
    outer loop
      vertex  -9.714523e-02  7.211424e-02  5.572081e-03
      vertex  -9.236452e-02  7.499261e-02  8.152072e-03
      vertex  -8.909974e-02  7.152852e-02  2.152629e-03
    endloop
  endfacet
  facet normal -2.937936e-01  5.457733e-01 -7.847400e-01
    outer loop
      vertex  -9.714523e-02  7.211424e-02  5.572081e-03
      vertex  -8.909974e-02  7.152852e-02  2.152629e-03
      vertex  -9.247924e-02  6.663785e-02  1.647800e-05
    endloop
  endfacet
  facet normal -6.246425e-01  2.260746e-01 -7.474704e-01
    outer loop
      vertex  -9.247924e-02  6.663785e-02  1.647800e-05
      vertex  -9.996153e-02  6.684771e-02  6.332716e-03
      vertex  -9.714523e-02  7.211424e-02  5.572081e-03
    endloop
  endfacet
  facet normal -2.087833e-03  8.655118e-01 -5.008841e-01
    outer loop
      vertex  -9.236452e-02  7.499261e-02  8.152072e-03
      vertex   9.332996e-02  7.496294e-02  7.326777e-03
      vertex  -8.909974e-02  7.152852e-02  2.152629e-03
    endloop
  endfacet
  facet normal  1.417703e-03  2.740088e-01 -9.617261e-01
    outer loop
      vertex  -9.247924e-02  6.663785e-02  1.647800e-05
      vertex   9.519289e-02  7.028693e-02  1.332802e-03
      vertex   9.106695e-02  6.563360e-02  9.236502e-07
    endloop
  endfacet
  facet normal  2.580494e-03  7.888429e-01 -6.145893e-01
    outer loop
      vertex  -8.909974e-02  7.152852e-02  2.152629e-03
      vertex   9.332996e-02  7.496294e-02  7.326777e-03
      vertex   9.519289e-02  7.028693e-02  1.332802e-03
    endloop
  endfacet
  facet normal -1.373071e-03  4.010617e-01 -9.160501e-01
    outer loop
      vertex  -8.909974e-02  7.152852e-02  2.152629e-03
      vertex   9.519289e-02  7.028693e-02  1.332802e-03
      vertex  -9.247924e-02  6.663785e-02  1.647800e-05
    endloop
  endfacet
  facet normal  1.010469e-01 -7.220236e-01 -6.844497e-01
    outer loop
      vertex  -9.748778e-02 -7.191918e-02  3.308504e-03
      vertex  -9.205672e-02 -6.804207e-02  2.035471e-05
      vertex  -9.193984e-02 -7.497372e-02  7.349788e-03
    endloop
  endfacet
  facet normal -9.020038e-01 -6.671937e-03 -4.316764e-01
    outer loop
      vertex  -9.999740e-02 -6.654361e-02  8.469356e-03
      vertex  -9.996153e-02  6.684771e-02  6.332716e-03
      vertex  -9.748778e-02 -7.191918e-02  3.308504e-03
    endloop
  endfacet
  facet normal -6.449601e-01  5.157093e-03 -7.641988e-01
    outer loop
      vertex  -9.748778e-02 -7.191918e-02  3.308504e-03
      vertex  -9.996153e-02  6.684771e-02  6.332716e-03
      vertex  -9.247924e-02  6.663785e-02  1.647800e-05
    endloop
  endfacet
  facet normal -5.170484e-01 -1.646712e-03 -8.559546e-01
    outer loop
      vertex  -9.748778e-02 -7.191918e-02  3.308504e-03
      vertex  -9.247924e-02  6.663785e-02  1.647800e-05
      vertex  -9.205672e-02 -6.804207e-02  2.035471e-05
    endloop
  endfacet
  facet normal -3.054898e-03 -7.265681e-01 -6.870876e-01
    outer loop
      vertex   9.107289e-02 -6.883337e-02  4.289697e-05
      vertex  -9.193984e-02 -7.497372e-02  7.349788e-03
      vertex  -9.205672e-02 -6.804207e-02  2.035471e-05
    endloop
  endfacet
  facet normal -4.815339e-01 -8.764264e-01 -1.376217e-03
    outer loop
      vertex  -9.193984e-02 -7.497372e-02  7.349788e-03
      vertex  -9.245224e-02 -7.499471e-02  2.000000e-01
      vertex  -9.748778e-02 -7.191918e-02  3.308504e-03
    endloop
  endfacet
  facet normal -6.507974e-01 -7.592365e-01  4.789561e-03
    outer loop
      vertex  -9.748778e-02 -7.191918e-02  3.308504e-03
      vertex  -9.245224e-02 -7.499471e-02  2.000000e-01
      vertex  -9.994760e-02 -6.856988e-02  2.000000e-01
    endloop
  endfacet
  facet normal -9.076505e-01 -4.197056e-01 -4.204226e-03
    outer loop
      vertex  -9.999740e-02 -6.654361e-02  8.469356e-03
      vertex  -9.748778e-02 -7.191918e-02  3.308504e-03
      vertex  -9.994760e-02 -6.856988e-02  2.000000e-01
    endloop
  endfacet
  facet normal -3.999740e-01  9.165246e-01  1.821545e-03
    outer loop
      vertex  -9.147920e-02  7.499768e-02  2.000000e-01
      vertex  -9.236452e-02  7.499261e-02  8.152072e-03
      vertex  -9.633771e-02  7.287741e-02  2.000000e-01
    endloop
  endfacet
  facet normal -8.819097e-01  4.714165e-01 -1.305314e-03
    outer loop
      vertex  -9.714523e-02  7.211424e-02  5.572081e-03
      vertex  -9.996153e-02  6.684771e-02  6.332716e-03
      vertex  -9.999184e-02  6.732725e-02  2.000000e-01
    endloop
  endfacet
  facet normal -8.352291e-01  5.499007e-01  1.310486e-03
    outer loop
      vertex  -9.999184e-02  6.732725e-02  2.000000e-01
      vertex  -9.633771e-02  7.287741e-02  2.000000e-01
      vertex  -9.714523e-02  7.211424e-02  5.572081e-03
    endloop
  endfacet
  facet normal -5.153210e-01  8.569963e-01 -1.223624e-03
    outer loop
      vertex  -9.714523e-02  7.211424e-02  5.572081e-03
      vertex  -9.633771e-02  7.287741e-02  2.000000e-01
      vertex  -9.236452e-02  7.499261e-02  8.152072e-03
    endloop
  endfacet
  facet normal  3.422339e-01 -2.781838e-04 -9.396147e-01
    outer loop
      vertex   9.106695e-02  6.563360e-02  9.236502e-07
      vertex   9.601504e-02 -7.078349e-02  1.843545e-03
      vertex   9.107289e-02 -6.883337e-02  4.289697e-05
    endloop
  endfacet
  facet normal  7.825378e-01  2.306510e-03 -6.225987e-01
    outer loop
      vertex   9.519289e-02  7.028693e-02  1.332802e-03
      vertex   9.998946e-02  6.753012e-02  7.351350e-03
      vertex   9.601504e-02 -7.078349e-02  1.843545e-03
    endloop
  endfacet
  facet normal  8.250937e-01 -1.210182e-03 -5.649947e-01
    outer loop
      vertex   9.601504e-02 -7.078349e-02  1.843545e-03
      vertex   9.998946e-02  6.753012e-02  7.351350e-03
      vertex   9.994026e-02 -6.912831e-02  7.572219e-03
    endloop
  endfacet
  facet normal  3.088747e-01 -1.643333e-03 -9.511013e-01
    outer loop
      vertex   9.106695e-02  6.563360e-02  9.236502e-07
      vertex   9.519289e-02  7.028693e-02  1.332802e-03
      vertex   9.601504e-02 -7.078349e-02  1.843545e-03
    endloop
  endfacet
  facet normal  5.881329e-01 -8.087642e-01 -4.936571e-04
    outer loop
      vertex   9.994026e-02 -6.912831e-02  7.572219e-03
      vertex   9.995994e-02 -6.923146e-02  2.000000e-01
      vertex   9.187168e-02 -7.499687e-02  9.359418e-03
    endloop
  endfacet
  facet normal  5.848625e-01 -8.111324e-01 -2.832836e-04
    outer loop
      vertex   9.187168e-02 -7.499687e-02  9.359418e-03
      vertex   9.995994e-02 -6.923146e-02  2.000000e-01
      vertex   9.196644e-02 -7.499513e-02  2.000000e-01
    endloop
  endfacet
  facet normal  7.447892e-01  6.672856e-01 -4.350157e-03
    outer loop
      vertex   9.332996e-02  7.496294e-02  7.326777e-03
      vertex   9.444819e-02  7.497091e-02  2.000000e-01
      vertex   9.998946e-02  6.753012e-02  7.351350e-03
    endloop
  endfacet
  facet normal  8.218622e-01  5.696840e-01  1.636469e-03
    outer loop
      vertex   9.998981e-02  6.697621e-02  2.000000e-01
      vertex   9.998946e-02  6.753012e-02  7.351350e-03
      vertex   9.444819e-02  7.497091e-02  2.000000e-01
    endloop
  endfacet
  facet normal -1.247438e-04 -1.000000e+00 -1.092768e-04
    outer loop
      vertex  -9.193984e-02 -7.497372e-02  7.349788e-03
      vertex   9.187168e-02 -7.499687e-02  9.359418e-03
      vertex  -9.245224e-02 -7.499471e-02  2.000000e-01
    endloop
  endfacet
  facet normal -2.262420e-06 -1.000000e+00  9.146270e-06
    outer loop
      vertex  -9.245224e-02 -7.499471e-02  2.000000e-01
      vertex   9.187168e-02 -7.499687e-02  9.359418e-03
      vertex   9.196644e-02 -7.499513e-02  2.000000e-01
    endloop
  endfacet
  facet normal  0.000000e+00  0.000000e+00  1.000000e+00
    outer loop
      vertex   9.196644e-02 -7.499513e-02  2.000000e-01
      vertex   7.840822e-02 -5.998731e-02  2.000000e-01
      vertex  -7.752129e-02 -5.998828e-02  2.000000e-01
    endloop
  endfacet
  facet normal  0.000000e+00  0.000000e+00  1.000000e+00
    outer loop
      vertex   9.196644e-02 -7.499513e-02  2.000000e-01
      vertex  -7.752129e-02 -5.998828e-02  2.000000e-01
      vertex  -9.245224e-02 -7.499471e-02  2.000000e-01
    endloop
  endfacet
  facet normal  0.000000e+00  0.000000e+00  1.000000e+00
    outer loop
      vertex  -7.752129e-02 -5.998828e-02  2.000000e-01
      vertex  -8.497564e-02 -5.338594e-02  2.000000e-01
      vertex  -9.994760e-02 -6.856988e-02  2.000000e-01
    endloop
  endfacet
  facet normal  0.000000e+00  0.000000e+00  1.000000e+00
    outer loop
      vertex  -9.994760e-02 -6.856988e-02  2.000000e-01
      vertex  -8.497564e-02 -5.338594e-02  2.000000e-01
      vertex  -8.499838e-02  5.101245e-02  2.000000e-01
    endloop
  endfacet
  facet normal  0.000000e+00 -0.000000e+00  1.000000e+00
    outer loop
      vertex  -9.994760e-02 -6.856988e-02  2.000000e-01
      vertex  -8.499838e-02  5.101245e-02  2.000000e-01
      vertex  -9.999184e-02  6.732725e-02  2.000000e-01
    endloop
  endfacet
  facet normal  0.000000e+00 -0.000000e+00  1.000000e+00
    outer loop
      vertex  -8.499838e-02  5.101245e-02  2.000000e-01
      vertex  -8.306199e-02  5.644746e-02  2.000000e-01
      vertex  -9.999184e-02  6.732725e-02  2.000000e-01
    endloop
  endfacet
  facet normal -0.000000e+00  0.000000e+00  1.000000e+00
    outer loop
      vertex  -9.999184e-02  6.732725e-02  2.000000e-01
      vertex  -8.306199e-02  5.644746e-02  2.000000e-01
      vertex  -9.147920e-02  7.499768e-02  2.000000e-01
    endloop
  endfacet
  facet normal  0.000000e+00  0.000000e+00  1.000000e+00
    outer loop
      vertex  -9.999184e-02  6.732725e-02  2.000000e-01
      vertex  -9.147920e-02  7.499768e-02  2.000000e-01
      vertex  -9.633771e-02  7.287741e-02  2.000000e-01
    endloop
  endfacet
  facet normal  0.000000e+00  0.000000e+00  1.000000e+00
    outer loop
      vertex  -9.147920e-02  7.499768e-02  2.000000e-01
      vertex  -8.306199e-02  5.644746e-02  2.000000e-01
      vertex  -7.654057e-02  5.999876e-02  2.000000e-01
    endloop
  endfacet
  facet normal  0.000000e+00  0.000000e+00  1.000000e+00
    outer loop
      vertex  -9.147920e-02  7.499768e-02  2.000000e-01
      vertex  -7.654057e-02  5.999876e-02  2.000000e-01
      vertex   7.904811e-02  5.996368e-02  2.000000e-01
    endloop
  endfacet
  facet normal  0.000000e+00  0.000000e+00  1.000000e+00
    outer loop
      vertex  -9.147920e-02  7.499768e-02  2.000000e-01
      vertex   7.904811e-02  5.996368e-02  2.000000e-01
      vertex   9.444819e-02  7.497091e-02  2.000000e-01
    endloop
  endfacet
  facet normal  0.000000e+00  0.000000e+00  1.000000e+00
    outer loop
      vertex   9.998981e-02  6.697621e-02  2.000000e-01
      vertex   7.904811e-02  5.996368e-02  2.000000e-01
      vertex   8.499093e-02  5.230866e-02  2.000000e-01
    endloop
  endfacet
  facet normal  0.000000e+00  0.000000e+00  1.000000e+00
    outer loop
      vertex   9.998981e-02  6.697621e-02  2.000000e-01
      vertex   8.499093e-02  5.230866e-02  2.000000e-01
      vertex   9.995994e-02 -6.923146e-02  2.000000e-01
    endloop
  endfacet
  facet normal  0.000000e+00  0.000000e+00  1.000000e+00
    outer loop
      vertex   9.995994e-02 -6.923146e-02  2.000000e-01
      vertex   8.499093e-02  5.230866e-02  2.000000e-01
      vertex   8.497638e-02 -5.273521e-02  2.000000e-01
    endloop
  endfacet
  facet normal  0.000000e+00  0.000000e+00  1.000000e+00
    outer loop
      vertex   9.995994e-02 -6.923146e-02  2.000000e-01
      vertex   8.497638e-02 -5.273521e-02  2.000000e-01
      vertex   7.840822e-02 -5.998731e-02  2.000000e-01
    endloop
  endfacet
  facet normal  0.000000e+00  0.000000e+00  1.000000e+00
    outer loop
      vertex   9.995994e-02 -6.923146e-02  2.000000e-01
      vertex   7.840822e-02 -5.998731e-02  2.000000e-01
      vertex   9.196644e-02 -7.499513e-02  2.000000e-01
    endloop
  endfacet
  facet normal  0.000000e+00  0.000000e+00  1.000000e+00
    outer loop
      vertex  -7.752129e-02 -5.998828e-02  2.000000e-01
      vertex  -9.994760e-02 -6.856988e-02  2.000000e-01
      vertex  -9.245224e-02 -7.499471e-02  2.000000e-01
    endloop
  endfacet
  facet normal  0.000000e+00  0.000000e+00  1.000000e+00
    outer loop
      vertex   7.904811e-02  5.996368e-02  2.000000e-01
      vertex   9.998981e-02  6.697621e-02  2.000000e-01
      vertex   9.444819e-02  7.497091e-02  2.000000e-01
    endloop
  endfacet
  facet normal  9.999999e-01 -3.601593e-04 -1.024495e-04
    outer loop
      vertex   9.994026e-02 -6.912831e-02  7.572219e-03
      vertex   9.998946e-02  6.753012e-02  7.351350e-03
      vertex   9.995994e-02 -6.923146e-02  2.000000e-01
    endloop
  endfacet
  facet normal  9.999999e-01 -2.192929e-04 -2.448215e-06
    outer loop
      vertex   9.995994e-02 -6.923146e-02  2.000000e-01
      vertex   9.998946e-02  6.753012e-02  7.351350e-03
      vertex   9.998981e-02  6.697621e-02  2.000000e-01
    endloop
  endfacet
  facet normal -8.490247e-05 -2.905096e-05 -1.000000e+00
    outer loop
      vertex  -9.247924e-02  6.663785e-02  1.647800e-05
      vertex   9.106695e-02  6.563360e-02  9.236502e-07
      vertex  -9.205672e-02 -6.804207e-02  2.035471e-05
    endloop
  endfacet
  facet normal  1.217458e-04 -3.121406e-04 -1.000000e+00
    outer loop
      vertex  -9.205672e-02 -6.804207e-02  2.035471e-05
      vertex   9.106695e-02  6.563360e-02  9.236502e-07
      vertex   9.107289e-02 -6.883337e-02  4.289697e-05
    endloop
  endfacet
  facet normal -4.558409e-01  6.206728e-01  6.379454e-01
    outer loop
      vertex   8.493916e-02 -5.324276e-02  2.090035e-02
      vertex   7.553387e-02 -5.413585e-02  1.504875e-02
      vertex   7.868480e-02 -5.995152e-02  2.295844e-02
    endloop
  endfacet
  facet normal -5.304070e-01  3.647466e-02  8.469581e-01
    outer loop
      vertex   8.164886e-02 -1.105610e-02  1.702301e-02
      vertex   7.553387e-02 -5.413585e-02  1.504875e-02
      vertex   8.493916e-02 -5.324276e-02  2.090035e-02
    endloop
  endfacet
  facet normal -7.411926e-01  6.712916e-01 -1.022215e-03
    outer loop
      vertex   7.868480e-02 -5.995152e-02  2.295844e-02
      vertex   7.840822e-02 -5.998731e-02  2.000000e-01
      vertex   8.497638e-02 -5.273521e-02  2.000000e-01
    endloop
  endfacet
  facet normal -7.317152e-01  6.816081e-01 -1.779525e-03
    outer loop
      vertex   7.868480e-02 -5.995152e-02  2.295844e-02
      vertex   8.497638e-02 -5.273521e-02  2.000000e-01
      vertex   8.493916e-02 -5.324276e-02  2.090035e-02
    endloop
  endfacet
  facet normal  6.551057e-01  5.932282e-03  7.555140e-01
    outer loop
      vertex  -7.765528e-02 -5.175389e-02  1.502397e-02
      vertex  -8.307956e-02  5.629880e-02  1.887893e-02
      vertex  -8.490066e-02 -5.409389e-02  2.132481e-02
    endloop
  endfacet
  facet normal  3.771876e-02  2.689879e-01  9.624047e-01
    outer loop
      vertex   7.553387e-02 -5.413585e-02  1.504875e-02
      vertex  -8.490066e-02 -5.409389e-02  2.132481e-02
      vertex  -7.744862e-02 -5.998723e-02  2.267991e-02
    endloop
  endfacet
  facet normal  1.443020e-02  9.318143e-01  3.626485e-01
    outer loop
      vertex  -8.490066e-02 -5.409389e-02  2.132481e-02
      vertex   7.553387e-02 -5.413585e-02  1.504875e-02
      vertex  -7.765528e-02 -5.175389e-02  1.502397e-02
    endloop
  endfacet
  facet normal  6.630284e-01  7.485894e-01 -2.687858e-03
    outer loop
      vertex  -8.490066e-02 -5.409389e-02  2.132481e-02
      vertex  -8.497564e-02 -5.338594e-02  2.000000e-01
      vertex  -7.752129e-02 -5.998828e-02  2.000000e-01
    endloop
  endfacet
  facet normal  6.202736e-01  7.843854e-01  2.588290e-04
    outer loop
      vertex  -8.490066e-02 -5.409389e-02  2.132481e-02
      vertex  -7.752129e-02 -5.998828e-02  2.000000e-01
      vertex  -7.744862e-02 -5.998723e-02  2.267991e-02
    endloop
  endfacet
  facet normal -1.241553e-03  8.054277e-01  5.926927e-01
    outer loop
      vertex   7.553387e-02 -5.413585e-02  1.504875e-02
      vertex  -7.744862e-02 -5.998723e-02  2.267991e-02
      vertex   7.868480e-02 -5.995152e-02  2.295844e-02
    endloop
  endfacet
  facet normal -8.471564e-01 -1.335545e-02  5.311756e-01
    outer loop
      vertex   8.060155e-02  5.631901e-02  1.704671e-02
      vertex   8.164886e-02 -1.105610e-02  1.702301e-02
      vertex   8.499648e-02  5.106270e-02  2.392389e-02
    endloop
  endfacet
  facet normal -5.058355e-01 -8.166349e-03  8.625913e-01
    outer loop
      vertex   7.721420e-02  5.111068e-02  1.501101e-02
      vertex   8.164886e-02 -1.105610e-02  1.702301e-02
      vertex   8.060155e-02  5.631901e-02  1.704671e-02
    endloop
  endfacet
  facet normal -8.747503e-01 -4.236619e-01  2.352076e-01
    outer loop
      vertex   8.321837e-02  5.605527e-02  2.630376e-02
      vertex   8.060155e-02  5.631901e-02  1.704671e-02
      vertex   8.499648e-02  5.106270e-02  2.392389e-02
    endloop
  endfacet
  facet normal -6.100589e-01 -7.779725e-01  1.502890e-01
    outer loop
      vertex   8.321837e-02  5.605527e-02  2.630376e-02
      vertex   7.744371e-02  5.998990e-02  2.323070e-02
      vertex   8.060155e-02  5.631901e-02  1.704671e-02
    endloop
  endfacet
  facet normal -9.416804e-01 -3.365003e-01  2.351478e-03
    outer loop
      vertex   8.321837e-02  5.605527e-02  2.630376e-02
      vertex   8.499648e-02  5.106270e-02  2.392389e-02
      vertex   8.499093e-02  5.230866e-02  2.000000e-01
    endloop
  endfacet
  facet normal -5.648897e-01 -8.251512e-01  5.004669e-03
    outer loop
      vertex   8.321837e-02  5.605527e-02  2.630376e-02
      vertex   7.904811e-02  5.996368e-02  2.000000e-01
      vertex   7.744371e-02  5.998990e-02  2.323070e-02
    endloop
  endfacet
  facet normal -7.898960e-01 -6.132191e-01 -5.166264e-03
    outer loop
      vertex   8.321837e-02  5.605527e-02  2.630376e-02
      vertex   8.499093e-02  5.230866e-02  2.000000e-01
      vertex   7.904811e-02  5.996368e-02  2.000000e-01
    endloop
  endfacet
  facet normal  1.975664e-01 -8.168426e-01  5.419739e-01
    outer loop
      vertex  -8.307956e-02  5.629880e-02  1.887893e-02
      vertex  -7.984998e-02  5.563817e-02  1.670598e-02
      vertex  -7.697910e-02  5.997839e-02  2.220087e-02
    endloop
  endfacet
  facet normal  5.445184e-01 -8.324692e-02  8.346075e-01
    outer loop
      vertex  -7.984998e-02  5.563817e-02  1.670598e-02
      vertex  -8.307956e-02  5.629880e-02  1.887893e-02
      vertex  -7.795186e-02  5.106551e-02  1.501151e-02
    endloop
  endfacet
  facet normal  9.419989e-01 -3.356160e-01 -1.282462e-04
    outer loop
      vertex  -8.306199e-02  5.644746e-02  2.000000e-01
      vertex  -8.499838e-02  5.101245e-02  2.000000e-01
      vertex  -8.499818e-02  5.108028e-02  2.396834e-02
    endloop
  endfacet
  facet normal  4.782455e-01 -8.782255e-01 -1.078936e-03
    outer loop
      vertex  -7.697910e-02  5.997839e-02  2.220087e-02
      vertex  -7.654057e-02  5.999876e-02  2.000000e-01
      vertex  -8.306199e-02  5.644746e-02  2.000000e-01
    endloop
  endfacet
  facet normal  5.162271e-01 -8.564515e-01  6.529068e-04
    outer loop
      vertex  -8.307956e-02  5.629880e-02  1.887893e-02
      vertex  -7.697910e-02  5.997839e-02  2.220087e-02
      vertex  -8.306199e-02  5.644746e-02  2.000000e-01
    endloop
  endfacet
  facet normal  9.386365e-01 -3.449082e-01  1.920560e-04
    outer loop
      vertex  -8.499818e-02  5.108028e-02  2.396834e-02
      vertex  -8.307956e-02  5.629880e-02  1.887893e-02
      vertex  -8.306199e-02  5.644746e-02  2.000000e-01
    endloop
  endfacet
  facet normal  9.383091e-01 -7.819298e-03  3.457092e-01
    outer loop
      vertex  -8.499818e-02  5.108028e-02  2.396834e-02
      vertex  -8.490066e-02 -5.409389e-02  2.132481e-02
      vertex  -8.307956e-02  5.629880e-02  1.887893e-02
    endloop
  endfacet
  facet normal  6.033485e-01  1.837002e-03  7.974756e-01
    outer loop
      vertex  -8.307956e-02  5.629880e-02  1.887893e-02
      vertex  -7.765528e-02 -5.175389e-02  1.502397e-02
      vertex  -7.795186e-02  5.106551e-02  1.501151e-02
    endloop
  endfacet
  facet normal  2.017108e-03 -7.852442e-01  6.191829e-01
    outer loop
      vertex  -7.984998e-02  5.563817e-02  1.670598e-02
      vertex   8.060155e-02  5.631901e-02  1.704671e-02
      vertex  -7.697910e-02  5.997839e-02  2.220087e-02
    endloop
  endfacet
  facet normal -4.344019e-04 -3.637908e-01  9.314806e-01
    outer loop
      vertex   8.060155e-02  5.631901e-02  1.704671e-02
      vertex  -7.984998e-02  5.563817e-02  1.670598e-02
      vertex   7.721420e-02  5.111068e-02  1.501101e-02
    endloop
  endfacet
  facet normal  1.041360e-04 -3.474377e-01  9.377031e-01
    outer loop
      vertex  -7.984998e-02  5.563817e-02  1.670598e-02
      vertex  -7.795186e-02  5.106551e-02  1.501151e-02
      vertex   7.721420e-02  5.111068e-02  1.501101e-02
    endloop
  endfacet
  facet normal -3.331604e-03 -8.606479e-01  5.091897e-01
    outer loop
      vertex  -7.697910e-02  5.997839e-02  2.220087e-02
      vertex   8.060155e-02  5.631901e-02  1.704671e-02
      vertex   7.744371e-02  5.998990e-02  2.323070e-02
    endloop
  endfacet
  facet normal -3.442084e-01  5.832180e-03  9.388751e-01
    outer loop
      vertex   7.553387e-02 -5.413585e-02  1.504875e-02
      vertex   8.164886e-02 -1.105610e-02  1.702301e-02
      vertex   7.721420e-02  5.111068e-02  1.501101e-02
    endloop
  endfacet
  facet normal -8.384699e-01 -1.532960e-02  5.447323e-01
    outer loop
      vertex   8.499648e-02  5.106270e-02  2.392389e-02
      vertex   8.164886e-02 -1.105610e-02  1.702301e-02
      vertex   8.493916e-02 -5.324276e-02  2.090035e-02
    endloop
  endfacet
  facet normal -2.290787e-04  9.999999e-01  2.017916e-04
    outer loop
      vertex   7.868480e-02 -5.995152e-02  2.295844e-02
      vertex  -7.744862e-02 -5.998723e-02  2.267991e-02
      vertex   7.840822e-02 -5.998731e-02  2.000000e-01
    endloop
  endfacet
  facet normal -6.187733e-06  1.000000e+00  5.879941e-06
    outer loop
      vertex   7.840822e-02 -5.998731e-02  2.000000e-01
      vertex  -7.744862e-02 -5.998723e-02  2.267991e-02
      vertex  -7.752129e-02 -5.998828e-02  2.000000e-01
    endloop
  endfacet
  facet normal  9.999995e-01  9.167740e-04  4.159846e-04
    outer loop
      vertex  -8.490066e-02 -5.409389e-02  2.132481e-02
      vertex  -8.499818e-02  5.108028e-02  2.396834e-02
      vertex  -8.497564e-02 -5.338594e-02  2.000000e-01
    endloop
  endfacet
  facet normal  1.000000e+00  2.178829e-04  1.226741e-06
    outer loop
      vertex  -8.497564e-02 -5.338594e-02  2.000000e-01
      vertex  -8.499818e-02  5.108028e-02  2.396834e-02
      vertex  -8.499838e-02  5.101245e-02  2.000000e-01
    endloop
  endfacet
  facet normal -1.599306e-04  1.207055e-04  1.000000e+00
    outer loop
      vertex  -7.765528e-02 -5.175389e-02  1.502397e-02
      vertex   7.553387e-02 -5.413585e-02  1.504875e-02
      vertex  -7.795186e-02  5.106551e-02  1.501151e-02
    endloop
  endfacet
  facet normal  3.082737e-06  3.585372e-04  1.000000e+00
    outer loop
      vertex  -7.795186e-02  5.106551e-02  1.501151e-02
      vertex   7.553387e-02 -5.413585e-02  1.504875e-02
      vertex   7.721420e-02  5.111068e-02  1.501101e-02
    endloop
  endfacet
  facet normal -1.000000e+00  1.384520e-04  2.074422e-04
    outer loop
      vertex   8.497638e-02 -5.273521e-02  2.000000e-01
      vertex   8.499093e-02  5.230866e-02  2.000000e-01
      vertex   8.493916e-02 -5.324276e-02  2.090035e-02
    endloop
  endfacet
  facet normal -9.999998e-01  5.505407e-04 -3.542009e-05
    outer loop
      vertex   8.493916e-02 -5.324276e-02  2.090035e-02
      vertex   8.499093e-02  5.230866e-02  2.000000e-01
      vertex   8.499648e-02  5.106270e-02  2.392389e-02
    endloop
  endfacet
  facet normal -2.254731e-04 -1.000000e+00 -1.462956e-04
    outer loop
      vertex   7.904811e-02  5.996368e-02  2.000000e-01
      vertex  -7.654057e-02  5.999876e-02  2.000000e-01
      vertex   7.744371e-02  5.998990e-02  2.323070e-02
    endloop
  endfacet
  facet normal  7.378022e-05 -1.000000e+00  1.143849e-04
    outer loop
      vertex   7.744371e-02  5.998990e-02  2.323070e-02
      vertex  -7.654057e-02  5.999876e-02  2.000000e-01
      vertex  -7.697910e-02  5.997839e-02  2.220087e-02
    endloop
  endfacet
  facet normal -9.999999e-01 -3.255517e-04  2.565648e-04
    outer loop
      vertex  -9.994760e-02 -6.856988e-02  2.000000e-01
      vertex  -9.999184e-02  6.732725e-02  2.000000e-01
      vertex  -9.999740e-02 -6.654361e-02  8.469356e-03
    endloop
  endfacet
  facet normal -9.999999e-01  2.664241e-04 -1.571983e-04
    outer loop
      vertex  -9.999740e-02 -6.654361e-02  8.469356e-03
      vertex  -9.999184e-02  6.732725e-02  2.000000e-01
      vertex  -9.996153e-02  6.684771e-02  6.332716e-03
    endloop
  endfacet
  facet normal  1.439806e-04  1.000000e+00 -2.707281e-05
    outer loop
      vertex  -9.147920e-02  7.499768e-02  2.000000e-01
      vertex   9.444819e-02  7.497091e-02  2.000000e-01
      vertex  -9.236452e-02  7.499261e-02  8.152072e-03
    endloop
  endfacet
  facet normal  1.595811e-04  1.000000e+00 -4.226387e-05
    outer loop
      vertex  -9.236452e-02  7.499261e-02  8.152072e-03
      vertex   9.444819e-02  7.497091e-02  2.000000e-01
      vertex   9.332996e-02  7.496294e-02  7.326777e-03
    endloop
  endfacet
endsolid vcg
